<?xml version="1.0" standalone="no"?><!DOCTYPE svg PUBLIC "-//W3C//DTD SVG 1.1//EN" "http://www.w3.org/Graphics/SVG/1.1/DTD/svg11.dtd"><svg t="1576048856514" class="icon" viewBox="0 0 1024 1024" version="1.1" xmlns="http://www.w3.org/2000/svg" p-id="14156" xmlns:xlink="http://www.w3.org/1999/xlink" width="200" height="200"><defs><style type="text/css"></style></defs><path d="M573.31 66H450.69c-16.76 0-30.33 13.57-30.33 30.33v129.55c0 16.76 13.57 30.33 30.33 30.33h122.62c16.76 0 30.33-13.57 30.33-30.33V96.33c0-16.76-13.56-30.33-30.33-30.33zM573.31 416.89H450.69c-16.76 0-30.33 13.57-30.33 30.33v129.55c0 16.76 13.57 30.33 30.33 30.33h122.62c16.76 0 30.33-13.57 30.33-30.33V447.22c0-16.76-13.56-30.33-30.33-30.33zM573.31 767.79H450.69c-16.76 0-30.33 13.57-30.33 30.33v129.55c0 16.76 13.57 30.33 30.33 30.33h122.62c16.76 0 30.33-13.57 30.33-30.33V798.12c0-16.77-13.56-30.33-30.33-30.33z" p-id="14157"></path></svg>